:SAMPLES-PER-SECOND 30
:FULLY-SPECIFIED
:DEGREES
1403
root  21.8975 37.7486 13.0704 85.3763 82.4496 92.8981
RightUpLeg  2.03046 1.40936 -13.8102
RightLeg  61.4917 3.79785 7.04356
RightFoot  8.86783 -1.87995 10.8333
RightToes  5.82063e-011 0 -3.6325e-017
Spine  9.13509 1.56327 -1.90997
Spine1  8.78936 2.75844 -9.14637
HEad  -11.8605 5.0683 -5.642
LeftShoulder1  -0.235598 4.12507 -31.7831
LeftArm  -3.7415 12.7423 -39.6041
LeftForeArm  19.1687 -11.7315 -7.20898
LeftHand  0.0116232 7.26354 2.92099
RightShoulder  -0.48446 -4.8699 28.5908
RightArm  15.1442 -6.5135 47.5353
RightForeArm  11.6509 9.72347 7.30516
RightHand  -0.0981269 0.993681 -1.89262
LeftUpLeg  -11.7325 8.32395 -13.5039
LeftLeg  22.9929 9.22398 3.73268
LeftFoot  -4.51465 -0.586592 10.2738
LeftToes  1.54581e-011 7.46816e-011 -4.69922e-011
1404
root  22.9439 37.854 12.9187 91.3096 82.3443 99.1903
RightUpLeg  -2.89205 3.91517 -13.1617
RightLeg  66.2785 3.64079 8.39711
RightFoot  5.26501 -1.61577 11.282
RightToes  5.82063e-011 0 -3.6325e-017
Spine  9.74398 0.894268 -3.71892
Spine1  8.81248 1.38485 -7.70512
HEad  -11.9815 6.04783 -6.28809
LeftShoulder1  -0.145677 3.88855 -31.7526
LeftArm  -0.514135 11.6136 -39.9825
LeftForeArm  18.3805 -13.6317 -7.22327
LeftHand  0.0147921 7.04103 3.50325
RightShoulder  -0.468105 -4.82358 28.5591
RightArm  17.1895 -6.54054 47.3938
RightForeArm  10.3954 12.5168 6.86885
RightHand  -0.117024 1.56777 -2.10717
LeftUpLeg  -9.32858 7.17709 -13.4756
LeftLeg  22.8655 9.78266 3.53406
LeftFoot  -6.1994 -0.412159 9.97709
LeftToes  1.54581e-011 7.46816e-011 -4.69922e-011
1405
root  24.0454 38.0082 12.7774 101.667 82.3544 109.893
RightUpLeg  -7.32619 5.67041 -12.2659
RightLeg  67.9931 3.26922 8.20252
RightFoot  4.75587 -1.38859 10.0186
RightToes  5.82063e-011 0 -3.6325e-017
Spine  9.93145 0.127475 -4.99531
Spine1  9.00818 0.0348723 -6.12544
HEad  -11.6961 6.82487 -6.70285
LeftShoulder1  -0.137225 3.8653 -31.774
LeftArm  3.49354 9.81329 -40.2913
LeftForeArm  17.3799 -15.4853 -6.99138
LeftHand  0.0128021 6.47865 4.48067
RightShoulder  -0.473879 -4.848 28.3476
RightArm  19.14 -7.06854 47.1836
RightForeArm  5.84481 15.7919 6.00692
RightHand  -0.164879 2.61434 -2.58729
LeftUpLeg  -6.51683 5.96551 -13.1253
LeftLeg  22.1164 9.87124 3.03085
LeftFoot  -7.66092 -0.259981 9.51381
LeftToes  1.54581e-011 7.46816e-011 -4.69922e-011
1406
root  25.1396 38.1557 12.6362 109.308 82.1456 117.706
RightUpLeg  -11.4574 7.57668 -11.6024
RightLeg  66.9144 2.87242 6.77051
RightFoot  3.20558 -1.10378 8.80826
RightToes  5.82063e-011 0 -3.6325e-017
Spine  10.2688 -0.39916 -5.5307
Spine1  8.62783 -0.68924 -5.67193
HEad  -11.1876 7.16707 -6.35324
LeftShoulder1  -0.108699 3.79521 -31.1069
LeftArm  7.22688 8.45027 -40.9907
LeftForeArm  15.7453 -18.0626 -6.00871
LeftHand  0.0103208 6.56527 4.03238
RightShoulder  -0.534566 -5.01511 28.5354
RightArm  20.9566 -7.75089 46.6397
RightForeArm  1.50821 19.1286 5.24856
RightHand  -0.242951 3.01524 -3.59513
LeftUpLeg  -3.73461 5.27048 -12.7264
LeftLeg  20.9382 9.68151 2.17693
LeftFoot  -8.87313 -0.147923 9.34015
LeftToes  1.54581e-011 7.46816e-011 -4.69922e-011
1407
root  26.2029 38.2733 12.4541 118.333 82.0204 126.494
RightUpLeg  -15.326 9.27417 -10.8172
RightLeg  63.026 2.53591 4.87585
RightFoot  2.13925 -0.870052 7.4688
RightToes  5.82063e-011 0 -3.6325e-017
Spine  10.0792 -0.919037 -6.24383
Spine1  8.48863 -1.61767 -3.87267
HEad  -10.773 6.78771 -6.3627
LeftShoulder1  -0.20029 4.03287 -31.7796
LeftArm  9.65442 6.29704 -40.8674
LeftForeArm  13.5547 -20.0509 -5.1755
LeftHand  0.00368597 6.36241 4.07788
RightShoulder  -0.450707 -4.80315 27.789
RightArm  20.682 -8.15577 46.4648
RightForeArm  0.445126 21.7712 4.85839
RightHand  -0.245135 3.5503 -3.42189
LeftUpLeg  -1.48379 4.84841 -12.2511
LeftLeg  19.7315 9.05808 1.53703
LeftFoot  -10.0529 -0.0451677 9.40217
LeftToes  1.54581e-011 7.46816e-011 -4.69922e-011
1408
root  27.2873 38.3393 12.2591 125.698 81.611 134.044
RightUpLeg  -17.7118 10.4862 -10.383
RightLeg  56.5646 2.31901 3.38616
RightFoot  0.917565 -0.656386 6.17515
RightToes  5.82063e-011 0 -3.6325e-017
Spine  10.2495 -1.40564 -6.12291
Spine1  8.34668 -2.10072 -3.38546
HEad  -10.5088 6.3671 -5.45267
LeftShoulder1  -0.184139 3.99347 -31.3521
LeftArm  11.9012 4.50792 -41.2406
LeftForeArm  10.6681 -21.7821 -4.6734
LeftHand  0.00488004 6.10087 5.09772
RightShoulder  -0.496256 -4.92851 27.9464
RightArm  20.6851 -7.90532 46.0188
RightForeArm  0.1196 23.3421 4.99609
RightHand  -0.302321 4.31451 -3.89896
LeftUpLeg  1.3015 4.83368 -11.8982
LeftLeg  18.4374 8.14218 1.01859
LeftFoot  -11.3436 0.0682664 9.40192
LeftToes  1.54581e-011 7.46816e-011 -4.69922e-011
1409
root  28.3843 38.3848 12.0638 132.285 80.9424 141.027
RightUpLeg  -18.424 10.8626 -9.92262
RightLeg  47.3615 1.75195 1.72783
RightFoot  -0.566919 -0.593312 6.24664
RightToes  5.82063e-011 0 -3.6325e-017
Spine  10.4194 -1.71282 -6.27298
Spine1  8.34839 -2.51536 -2.42594
HEad  -10.1052 5.71538 -4.15125
LeftShoulder1  -0.058843 3.66415 -30.7116
LeftArm  11.3026 2.82522 -42.0285
LeftForeArm  10.7603 -22.5553 -4.49234
LeftHand  -0.0135866 5.69024 4.83876
RightShoulder  -0.570186 -5.1155 28.5894
RightArm  20.998 -7.4174 44.9075
RightForeArm  1.35077 24.4804 5.16626
RightHand  -0.263563 4.43988 -3.39471
LeftUpLeg  4.25251 5.03938 -11.5428
LeftLeg  17.3512 6.69488 0.613439
LeftFoot  -12.4885 0.167364 9.1715
LeftToes  1.54581e-011 7.46816e-011 -4.69922e-011
